<svg width="13.000000000000002" height="13.000000000000002" xmlns="http://www.w3.org/2000/svg">
 <g>
  <title>background</title>
  <rect x="-1" y="-1" width="15" height="15" id="canvas_background" fill="none"/>
 </g>

 <g>
  <title>Layer 1</title>
  <path d="m6.5,0c-3.58203,0 -6.5,2.91797 -6.5,6.5c0,3.582 2.91797,6.5 6.5,6.5c3.582,0 6.5,-2.918 6.5,-6.5c0,-3.58203 -2.918,-6.5 -6.5,-6.5zm0,1c3.04297,0 5.5,2.45703 5.5,5.5c0,3.04297 -2.45703,5.5 -5.5,5.5c-3.04297,0 -5.5,-2.45703 -5.5,-5.5c0,-3.04297 2.45703,-5.5 5.5,-5.5z" fill="#828282" id="svg_1"/>
  <g stroke="null" id="svg_6">
   <path stroke="#828282" d="m4.527121,6.082828l1.679786,1.679786l2.519679,-2.939625" id="svg_5" fill="none"/>
  </g>
 </g>
</svg>