<svg width="24" height="24" xmlns="http://www.w3.org/2000/svg">

 <g>
  <title>background</title>
  <rect fill="none" id="canvas_background" height="402" width="582" y="-1" x="-1"/>
 </g>
 <g>
  <title>Layer 1</title>
  <rect id="svg_1" fill="#FF9500" rx="12" height="24" width="24" opacity="0.1"/>
  <g stroke="null" id="svg_6">
   <path stroke="null" id="svg_5" fill="#FF9500" d="m19.809423,15.526884l-6.577404,-10.940933c-0.227808,-0.382604 -0.630869,-0.610423 -1.077727,-0.610423c-0.446869,0 -0.849929,0.22782 -1.077738,0.610423l-6.577392,10.940933c-0.233663,0.388391 -0.239506,0.873235 -0.01753,1.267571c0.221976,0.394335 0.642556,0.639617 1.095256,0.639617l13.154841,0c0.452656,0 0.873235,-0.245282 1.095189,-0.639617c0.221954,-0.394335 0.216122,-0.879179 -0.017496,-1.267571zm-6.907441,-0.335903l-1.49539,0l0,-1.49539l1.49539,0l0,1.49539zm0,-2.990791l-1.49539,0l0,-3.738481l1.49539,0l0,3.738481z"/>
  </g>
 </g>
</svg>